# xmcd CD database file
#
# Track frame offsets:
#	150
#	21603
#	36260
#	54204
#	77697
#	94442
#	110762
#	141274
#
# Disc length: 2291 seconds
#
# Revision: 0
# Processed by: cddbd v1.5.2PL0 Copyright (c) Steve Scherf et al.
# Submitted via: CDex 1.51
#
DISCID=6e08f108
DTITLE=The Sleen Gang - In Harm's Way
DYEAR=2007
DGENRE=Blues
TTITLE0=Real Man
TTITLE1=Trust Me Baby
TTITLE2=If You Went Away
TTITLE3=Good Morning Blues
TTITLE4=Bad Day
TTITLE5=Lonesome Highway
TTITLE6=Dutch Blues
TTITLE7=Last Summer Theme/The Grass Is On Fire
EXTD=YEAR: 2007
EXTT0=
EXTT1=
EXTT2=
EXTT3=
EXTT4=
EXTT5=
EXTT6=
EXTT7=
PLAYORDER=
